<?xml version="1.0" standalone="no"?>
<!DOCTYPE svg PUBLIC "-//W3C//DTD SVG 20010904//EN"
 "http://www.w3.org/TR/2001/REC-SVG-20010904/DTD/svg10.dtd">
<svg version="1.0" xmlns="http://www.w3.org/2000/svg"
 width="860.000000pt" height="965.000000pt" viewBox="0 0 860.000000 965.000000"
 preserveAspectRatio="xMidYMid meet">

<g transform="translate(0.000000,965.000000) scale(0.100000,-0.100000)"
fill="#000000" stroke="none">
<path d="M5839 9230 c-199 -31 -378 -107 -469 -199 -68 -67 -82 -112 -55 -171
l17 -37 -37 -51 c-36 -51 -75 -144 -75 -180 0 -11 -15 -39 -34 -63 -82 -108
-111 -202 -111 -359 0 -132 16 -194 70 -264 l32 -43 6 -319 c7 -417 47 -769
105 -921 57 -151 161 -253 325 -319 l77 -31 -84 -57 c-135 -91 -296 -155 -505
-202 -65 -14 -84 -15 -142 -4 -60 12 -73 11 -113 -4 -51 -20 -91 -61 -101
-105 -6 -26 -38 -51 -51 -39 -2 2 0 51 5 109 9 121 -1 164 -43 175 -22 5
-1163 -50 -1476 -72 l-85 -6 80 54 c76 50 80 55 83 93 3 51 -214 1543 -229
1572 -7 12 -19 25 -28 28 -9 4 -382 58 -829 120 l-813 114 -117 -50 c-135 -58
-157 -75 -154 -121 2 -49 507 -2550 518 -2571 6 -10 26 -24 45 -30 l35 -12
-664 -485 c-365 -267 -674 -495 -688 -507 -23 -21 -24 -26 -24 -171 0 -202 -5
-196 168 -200 l131 -4 5 -26 c3 -15 128 -681 276 -1481 149 -800 275 -1462
281 -1472 5 -10 18 -23 29 -29 20 -11 2965 -15 2994 -4 15 6 106 113 140 165
16 25 15 98 -8 1285 -14 693 -27 1334 -30 1427 l-6 167 94 0 94 0 7 -29 c11
-51 61 -118 109 -146 38 -22 54 -26 89 -21 217 32 251 39 281 59 14 9 38 17
53 17 32 0 73 25 73 43 0 7 16 22 36 35 66 43 89 131 59 228 -8 27 -32 137
-53 244 l-38 195 4 352 3 352 47 21 c26 12 59 32 73 46 24 23 39 25 268 46
194 17 244 19 250 9 14 -22 32 -208 32 -325 0 -201 -41 -278 -204 -388 -113
-76 -171 -134 -203 -201 -26 -56 -32 -135 -14 -183 9 -23 5 -35 -29 -88 -69
-105 -84 -150 -89 -256 -9 -232 75 -406 254 -521 l64 -42 0 -82 c0 -109 25
-200 99 -369 104 -235 181 -489 181 -600 0 -32 -3 -35 -47 -50 -27 -8 -112
-31 -190 -50 -78 -19 -155 -42 -171 -50 -40 -20 -79 -69 -87 -107 -15 -69 23
-192 69 -222 15 -10 25 -30 29 -54 14 -88 109 -183 197 -198 l38 -6 -29 -56
c-19 -36 -29 -70 -29 -98 0 -42 0 -43 -67 -78 -116 -61 -148 -89 -184 -164
-33 -65 -34 -72 -38 -210 -4 -170 -3 -173 99 -233 144 -86 289 -113 455 -85
204 35 357 92 492 181 113 75 123 90 123 178 l0 72 43 36 c24 20 57 62 73 93
23 44 38 60 69 74 56 25 105 69 122 109 9 21 13 61 12 101 -1 47 3 74 14 92
33 52 39 104 23 208 -9 54 -16 110 -16 125 l0 26 103 0 102 0 13 -66 c31 -166
146 -276 271 -261 131 15 276 144 316 280 l12 42 82 16 c45 9 90 24 101 34 38
34 19 189 -32 273 -37 61 -57 65 -322 68 -131 2 -241 6 -244 9 -3 3 5 13 19
23 179 125 286 388 251 622 -6 45 -20 100 -31 124 -24 56 -83 120 -138 153
-40 23 -43 27 -43 69 0 92 -46 133 -152 135 l-63 1 101 24 c55 14 133 41 174
62 l74 37 93 165 c111 196 270 508 307 602 29 74 34 145 12 186 -31 59 -113
111 -200 127 -31 6 -35 10 -41 52 -4 25 -32 93 -62 152 -124 234 -153 293
-153 306 0 10 23 13 99 12 86 -2 103 1 128 19 44 32 71 97 83 204 22 195 17
178 62 201 92 47 183 157 212 258 21 72 20 124 -5 191 -17 45 -20 77 -19 175
1 192 29 470 56 556 2 9 37 29 77 45 95 38 141 84 156 155 7 29 9 72 5 95 -5
33 1 57 26 120 18 43 32 97 32 119 0 94 -19 252 -35 282 -20 37 -62 73 -87 73
-10 0 -30 17 -46 38 -53 70 -107 99 -202 108 l-69 7 -6 89 c-7 109 -28 155
-81 182 -33 16 -43 17 -79 6 -62 -18 -102 -53 -134 -117 -26 -54 -28 -66 -28
-183 0 -69 2 -168 4 -220 4 -91 3 -98 -28 -158 -57 -110 -52 -203 14 -302 19
-29 35 -64 35 -79 0 -31 -42 -276 -65 -377 -16 -67 -19 -72 -58 -93 -23 -11
-67 -35 -97 -51 -30 -17 -64 -30 -75 -30 -30 0 -79 33 -110 75 -33 42 -95 80
-145 89 -20 3 -60 0 -90 -8 -53 -14 -55 -13 -83 10 -16 13 -35 24 -43 24 -18
0 -18 -2 10 103 23 88 24 89 72 117 130 74 214 223 214 381 0 68 -27 178 -53
213 -11 15 -8 33 24 129 130 389 138 715 23 953 -63 133 -157 225 -261 255
-26 7 -49 22 -59 38 -101 159 -243 260 -439 312 -63 17 -116 22 -250 25 -93 1
-195 -1 -226 -6z m-104 -925 c9 -33 26 -77 37 -98 19 -38 21 -39 58 -33 27 4
41 2 50 -9 10 -12 20 -10 68 14 66 33 154 61 192 61 15 0 44 -11 64 -25 48
-33 55 -32 47 8 -12 52 -38 93 -82 130 l-41 35 56 7 c89 11 216 -12 295 -55
22 -11 21 -12 -17 -58 -21 -26 -49 -62 -62 -81 l-23 -33 23 -57 c12 -31 51
-110 86 -177 83 -160 129 -272 148 -366 l16 -77 -50 -118 c-64 -151 -174 -368
-186 -367 -5 1 -22 23 -37 50 -63 107 -98 121 -198 79 -151 -63 -408 -157
-482 -176 -64 -17 -98 -20 -166 -16 -47 3 -98 9 -112 12 -19 5 -33 0 -58 -20
-17 -15 -33 -26 -35 -24 -5 5 -33 261 -42 375 l-6 91 67 17 c37 9 94 30 127
47 l59 30 -6 57 c-4 31 -13 82 -21 112 -48 176 -185 210 -225 57 -6 -20 -7 7
-4 77 3 60 5 135 5 167 l0 57 43 21 c24 12 69 26 100 32 l57 12 0 63 c0 56 -3
65 -26 83 -29 23 -74 27 -105 11 -10 -6 -19 -7 -19 -2 0 14 21 72 27 72 2 0
19 -11 37 -25 63 -48 199 -74 223 -42 6 6 16 41 22 77 7 35 25 87 39 115 l26
50 7 -50 c3 -28 14 -77 24 -110z m2006 -292 c6 -16 9 -74 7 -130 l-3 -103 -32
-11 c-17 -5 -44 -19 -58 -31 -14 -11 -29 -17 -33 -13 -4 4 -6 47 -6 97 2 102
22 167 61 198 35 27 52 25 64 -7z m-5560 -258 c376 -47 685 -87 687 -89 2 -2
32 -199 68 -437 36 -239 83 -555 105 -703 22 -148 37 -272 32 -276 -27 -24
-1117 -670 -1122 -665 -5 6 -460 2255 -456 2255 1 0 310 -38 686 -85z m3219
-8 c18 -14 50 -58 50 -69 0 -3 -10 -8 -21 -10 -12 -2 -31 -16 -43 -31 -17 -24
-21 -43 -22 -115 0 -79 -2 -87 -20 -87 -16 0 -20 10 -27 60 -12 84 -2 210 17
240 18 27 42 31 66 12z m2584 -11 c36 -15 69 -56 80 -98 6 -25 11 -28 45 -28
24 0 44 -7 53 -17 22 -25 31 -94 19 -138 -8 -30 -7 -42 4 -59 21 -29 19 -58
-11 -123 -21 -45 -28 -80 -33 -160 -5 -78 -11 -106 -25 -122 -27 -30 -143 -73
-216 -80 -48 -4 -65 -10 -65 -21 0 -10 12 -16 36 -18 l36 -3 -18 -92 c-24
-128 -37 -255 -44 -442 -8 -191 -20 -292 -46 -360 -31 -81 -29 -79 -90 -61
-68 19 -123 64 -153 125 -29 56 -76 203 -76 236 0 13 15 77 34 143 39 133 98
404 116 527 15 101 21 118 29 85 10 -37 36 -32 35 7 -1 22 -22 59 -65 118 -54
75 -63 94 -67 140 -3 42 1 64 21 107 46 99 52 100 52 1 0 -64 5 -96 17 -118 9
-16 26 -50 38 -75 11 -24 28 -52 36 -61 12 -13 13 -22 5 -38 -26 -48 5 -113
70 -146 58 -31 171 -13 213 34 28 31 -2 38 -50 12 -117 -63 -264 29 -176 111
58 55 138 74 221 54 29 -8 33 -7 29 10 -2 12 -18 23 -46 31 -55 15 -128 3
-188 -32 l-42 -25 -21 34 c-45 72 -14 122 93 151 59 16 130 17 210 3 35 -6 29
22 -8 37 -80 34 -252 4 -320 -55 l-34 -30 -6 31 c-18 92 3 167 56 196 26 14
52 17 121 16 68 -2 87 1 87 12 0 19 -26 25 -102 27 -75 1 -102 -6 -145 -38
l-32 -24 -15 22 c-50 80 -8 167 94 196 54 16 205 14 244 -2z m-2510 -118 c3
-13 6 -47 6 -75 0 -49 -2 -54 -31 -69 -26 -13 -33 -14 -41 -2 -13 19 -5 133
11 152 19 23 48 20 55 -6z m1438 -108 c42 -33 71 -114 71 -202 0 -64 -5 -87
-31 -141 -49 -106 -148 -184 -258 -202 l-42 -6 -6 113 c-8 136 6 256 37 318
29 60 129 140 173 140 17 0 43 -9 56 -20z m-1625 -82 c-3 -8 -6 -5 -6 6 -1 11
2 17 5 13 3 -3 4 -12 1 -19z m875 -465 c-27 -52 -119 -140 -193 -185 -101 -61
-291 -115 -357 -102 -22 5 -30 15 -45 61 -10 31 -16 57 -15 58 2 1 41 9 88 19
117 24 337 98 445 150 50 24 91 42 93 40 2 -1 -5 -19 -16 -41z m73 -4 c4 -18
16 -50 26 -73 51 -113 -11 -208 -215 -325 -103 -59 -111 -60 -135 -20 l-20 33
47 21 c72 31 92 44 92 60 0 20 -3 20 -95 -20 -90 -39 -173 -62 -261 -73 -42
-5 -59 -11 -59 -22 0 -8 10 -16 23 -18 28 -4 30 -38 1 -47 -31 -10 -69 3 -78
28 -5 12 -12 49 -16 83 l-7 61 80 -5 c186 -11 436 108 547 259 25 34 45 67 45
75 0 27 18 14 25 -17z m485 -41 c0 -7 -20 -82 -43 -166 l-44 -154 -94 -74
c-174 -139 -219 -195 -219 -272 0 -22 7 -56 15 -75 21 -51 20 -54 -27 -75 -58
-26 -106 -77 -114 -121 -9 -56 -12 -61 -31 -54 -30 10 -44 25 -67 72 -26 51
-25 55 28 151 28 50 31 53 36 30 4 -16 14 -26 28 -28 29 -4 29 17 1 149 -11
56 -19 102 -17 104 2 2 37 26 79 54 102 67 242 216 329 348 66 100 85 119 128
122 6 1 12 -5 12 -11z m-1181 -218 c0 -9 -4 -8 -9 5 -5 11 -9 27 -9 35 0 9 4
8 9 -5 5 -11 9 -27 9 -35z m1229 -92 c24 -24 13 -72 -29 -123 -22 -27 -52 -69
-67 -94 -15 -26 -42 -66 -61 -91 -18 -25 -48 -73 -64 -107 -17 -35 -35 -63
-39 -63 -4 0 -21 26 -37 58 -36 70 -76 111 -93 94 -9 -9 -7 -17 9 -34 11 -13
31 -43 43 -68 56 -112 87 -125 127 -55 l23 40 -6 -44 c-6 -38 -5 -43 11 -40
14 3 23 23 36 74 37 149 104 270 199 359 106 99 190 100 265 1 33 -43 95 -81
148 -91 37 -6 39 -8 32 -38 -18 -85 -25 -148 -25 -218 0 -66 3 -79 19 -87 21
-12 52 11 31 24 -26 16 -4 238 30 305 22 44 55 64 40 25 -5 -13 -10 -45 -12
-72 -2 -36 0 -48 11 -48 10 0 21 25 33 75 19 76 50 123 89 133 23 6 23 -3 5
-63 -10 -32 -18 -44 -30 -42 -51 9 -12 -247 60 -389 53 -105 145 -163 261
-163 40 -1 73 -4 73 -8 0 -16 -107 -121 -141 -139 -55 -28 -89 -24 -149 17
-64 44 -99 40 -55 -6 33 -35 20 -39 -40 -11 -72 32 -123 107 -169 249 -16 48
-37 65 -50 43 -7 -10 48 -163 75 -209 10 -18 19 -35 19 -36 0 -2 -20 -9 -44
-15 -97 -24 -188 -7 -289 54 -57 34 -77 37 -77 12 0 -27 178 -116 233 -117 9
0 17 -4 17 -8 0 -5 7 -58 14 -118 38 -283 95 -459 215 -657 98 -163 115 -247
86 -431 -22 -145 -52 -241 -69 -227 -22 18 -534 113 -641 118 -92 5 -107 3
-190 -25 -49 -17 -98 -34 -109 -38 -18 -7 -18 0 -11 197 12 333 -13 500 -165
1107 -44 177 -80 333 -80 347 0 34 36 71 100 103 64 31 70 49 44 117 -21 56
-15 111 17 155 31 43 326 280 348 280 9 0 22 -5 29 -12z m-644 -245 c29 -100
29 -95 -19 -167 -78 -117 -118 -292 -96 -425 6 -36 9 -66 8 -67 -6 -6 -127
183 -127 197 0 9 17 28 39 43 21 15 46 42 56 60 17 30 17 36 1 106 -10 41 -16
91 -14 112 3 45 -13 66 -32 43 -8 -10 -11 -35 -8 -74 l4 -60 -49 -21 c-28 -11
-52 -18 -55 -15 -6 6 60 144 92 191 22 32 38 43 103 65 43 14 81 27 85 27 4 1
9 -6 12 -15z m-327 -179 l22 -6 -20 -49 c-10 -28 -19 -56 -19 -64 0 -22 49
-19 111 5 42 17 54 18 60 8 18 -28 7 -53 -46 -102 -40 -37 -55 -58 -55 -77 0
-26 65 -129 158 -254 25 -33 51 -80 59 -104 37 -123 83 -474 83 -630 0 -117
-30 -199 -153 -416 -28 -49 -52 -91 -53 -93 -1 -2 -16 4 -34 13 -38 20 -231
37 -315 29 -98 -11 -138 -44 -122 -103 2 -10 0 -26 -5 -36 -15 -25 -28 -1 -28
52 0 86 38 133 186 234 114 78 152 115 190 191 71 141 71 375 -2 752 -29 151
-73 327 -86 341 -5 5 -12 5 -19 -2 -8 -8 -2 -51 25 -160 19 -81 37 -164 38
-183 l3 -34 -240 -22 c-311 -29 -305 -29 -305 -4 0 48 -63 120 -104 120 -26 0
-19 -18 24 -59 50 -47 53 -85 13 -123 -32 -29 -56 -42 -95 -52 l-28 -6 0 67
c0 58 2 65 13 48 15 -19 37 -13 37 9 0 7 -18 34 -40 59 -75 85 -182 129 -313
129 -81 1 -161 -14 -172 -31 -8 -14 6 -41 21 -41 11 0 14 -17 14 -72 l-1 -73
-29 32 c-62 68 -59 158 7 212 20 17 84 49 142 72 58 23 111 46 118 51 7 6 10
21 6 39 -8 41 19 69 68 69 28 0 55 -12 105 -45 36 -25 70 -45 75 -45 23 0 17
25 -11 49 l-33 27 69 13 c191 38 395 117 527 204 103 69 112 72 154 61z m2082
-199 c1 -65 -7 -82 -38 -82 l-28 0 18 41 c9 23 21 59 25 81 6 32 9 36 15 20 4
-11 8 -38 8 -60z m-3273 38 c-3 -16 -8 -82 -12 -148 l-6 -120 -44 -46 c-73
-79 -77 -157 -14 -247 l32 -45 -39 -536 -38 -536 -75 -3 c-201 -8 -3945 -100
-3948 -97 -4 3 1382 1018 1398 1023 6 2 10 -13 10 -37 0 -112 78 -176 249
-207 238 -42 537 26 625 143 25 34 31 88 16 159 -23 110 -102 163 -272 180
l-68 6 0 47 c0 25 -3 62 -6 81 l-6 35 159 115 c87 63 176 127 199 141 l41 27
814 45 c448 24 854 45 902 46 l89 1 -6 -27z m1506 -125 c13 -10 39 -18 59 -18
l35 0 82 -337 c45 -186 91 -383 102 -438 22 -105 50 -325 50 -386 l0 -35 -57
4 c-32 2 -98 -1 -148 -6 -49 -6 -91 -9 -93 -8 -1 2 8 29 20 62 19 50 22 79 22
199 -1 222 -32 439 -99 685 -41 151 -49 211 -40 291 l7 61 19 -28 c10 -16 29
-36 41 -46z m-1244 -294 c24 -7 61 -24 82 -38 33 -22 39 -32 46 -78 5 -29 8
-260 7 -514 l-2 -460 32 -165 33 -164 -28 -110 c-14 -60 -27 -122 -27 -137 -1
-21 -6 -28 -21 -28 -25 0 -25 4 5 84 30 79 30 86 7 86 -13 0 -27 -26 -57 -105
-30 -79 -44 -105 -57 -105 -23 0 -23 0 12 80 34 77 38 103 15 98 -9 -2 -35
-46 -58 -98 -42 -93 -44 -95 -80 -98 -20 -2 -37 1 -37 7 0 5 16 47 35 92 39
94 42 112 18 107 -11 -2 -33 -41 -63 -113 -28 -65 -53 -111 -62 -113 -9 -2
-29 9 -44 23 -16 14 -24 25 -19 24 27 -4 33 5 37 52 3 29 14 62 27 79 20 28
20 33 9 98 -15 87 -2 181 45 346 l34 118 -19 61 c-31 101 -84 561 -95 824 l-6
162 34 4 c47 6 146 -3 197 -19z m-220 -1004 c7 -19 1 -52 -24 -140 -18 -63
-33 -128 -34 -145 -1 -16 -4 -25 -7 -18 -4 10 3 123 28 446 0 6 7 -17 14 -53
7 -36 17 -76 23 -90z m-173 -387 c-3 -49 -8 -109 -11 -135 l-6 -48 -111 0
c-197 0 -2600 -19 -3279 -25 l-658 -7 0 101 0 101 43 1 c23 0 868 22 1877 48
1009 27 1906 49 1993 50 l159 1 -7 -87z m2928 22 c15 0 27 -1 27 -2 0 -2 -17
-21 -37 -44 -33 -37 -80 -69 -100 -69 -4 0 -6 29 -5 65 l4 65 41 -7 c23 -4 54
-8 70 -8z m-2825 -179 c-15 -19 -20 4 -12 56 l8 53 6 -50 c3 -27 2 -54 -2 -59z
m522 -22 c0 -28 -6 -46 -20 -59 -24 -22 -25 -14 -8 69 12 64 28 58 28 -10z
m-1076 -161 c4 -65 27 -617 51 -1228 25 -610 49 -1216 55 -1345 5 -129 10
-254 10 -277 l0 -43 -1444 0 -1444 0 -21 113 c-31 164 -521 2796 -527 2833
l-6 32 404 6 c221 4 925 10 1563 15 638 4 1203 8 1256 9 l97 2 6 -117z m170
65 c3 -29 8 -206 10 -393 3 -187 15 -813 27 -1392 l21 -1052 -33 -43 c-21 -26
-35 -37 -36 -28 -2 11 -123 2921 -123 2955 0 3 29 5 64 5 l65 0 5 -52z m406
-20 c0 -25 -3 -29 -10 -18 -13 20 -13 50 0 50 6 0 10 -15 10 -32z"/>
<path d="M6059 7981 c-71 -22 -146 -82 -171 -138 -15 -35 -18 -62 -16 -158 l3
-115 32 -15 c60 -29 188 -11 318 45 59 25 185 108 185 121 0 20 -31 20 -57 -1
l-27 -21 -21 78 c-31 117 -60 170 -106 193 -39 20 -94 24 -140 11z m139 -56
c29 -24 71 -129 86 -216 5 -31 3 -37 -17 -46 -22 -11 -24 -9 -36 38 -15 59
-59 109 -94 109 -93 0 -144 -97 -103 -195 l15 -35 -59 0 c-33 0 -62 5 -66 11
-14 22 -17 195 -4 233 32 97 207 161 278 101z m-25 -178 c8 -13 18 -44 22 -69
l7 -45 -48 -17 c-26 -9 -53 -16 -59 -16 -17 0 -35 45 -35 90 0 67 80 107 113
57z"/>
<path d="M5970 7280 c0 -39 -6 -86 -14 -105 -12 -28 -12 -36 -1 -45 11 -9 18
-5 32 16 22 35 32 167 13 189 -23 28 -30 15 -30 -55z"/>
<path d="M5401 7242 c-35 -65 14 -188 90 -227 36 -19 83 -19 99 0 18 22 3 34
-35 28 -24 -4 -43 0 -61 12 -35 22 -66 96 -63 145 4 48 -14 72 -30 42z"/>
<path d="M5772 7189 c-58 -29 -75 -50 -52 -64 6 -3 23 3 39 14 15 11 50 26 77
32 27 6 55 13 62 15 6 2 12 10 12 19 0 26 -70 18 -138 -16z"/>
<path d="M6840 7413 c-30 -11 -53 -39 -85 -103 -45 -90 -57 -136 -39 -151 14
-11 22 1 47 74 13 34 27 19 51 -55 7 -23 23 -23 31 1 7 23 -10 69 -37 99 l-21
22 30 38 c26 32 36 37 67 35 26 -2 36 2 36 12 0 26 -44 41 -80 28z"/>
<path d="M3675 5976 c-163 -32 -257 -113 -271 -233 -8 -63 1 -70 104 -84 132
-18 403 15 591 71 l71 21 0 36 c0 79 -69 168 -149 192 -49 14 -268 13 -346 -3z"/>
<path d="M3192 5528 c-90 -138 -183 -304 -361 -647 -98 -189 -121 -241 -121
-275 0 -75 -67 -72 796 -41 429 15 782 30 786 34 12 10 81 992 71 1001 -6 6
-962 51 -1064 50 -23 0 -38 -17 -107 -122z"/>
</g>
</svg>
